<?xml version="1.0"?><svg id="Layer_3" style="enable-background:new 0 0 64 64;" version="1.1" viewBox="0 0 64 64" xml:space="preserve" xmlns="http://www.w3.org/2000/svg" xmlns:xlink="http://www.w3.org/1999/xlink"><g><g><polygon points="45.506,31.588 52.083,37.069 47.9,41.95 42,39 43.91,32.313   " style="fill:#919191;"/></g><g><polygon points="18.494,31.588 11.917,37.069 16.1,41.95 22,39 20.09,32.313   " style="fill:#919191;"/></g><g><rect height="2.001" transform="matrix(0.7681 -0.6403 0.6403 0.7681 -18.4544 17.6952)" width="8.562" x="10.925" y="33.328"/></g><g><path d="M44.744,59.026L55,58l-8-15l0.9-1.05L42,39v7l2,6l-9,3h-6l-9-3l2-6v-7l-5.9,2.95L17,43L9,58    c0,0,10.256,1.026,10.256,1.026C19.871,60.759,21.525,62,23.469,62h0c1.503,0,2.9-0.755,3.725-2c0,0,8.232,0,9.611,0    c0.825,1.245,2.223,2,3.725,2h0C42.475,62,44.129,60.759,44.744,59.026z" style="fill:#2D4C40;"/></g><g><path d="M30,55l-2.698,4.83C26.494,61.176,25.039,62,23.469,62h0C21.001,62,19,59.999,19,57.531v-0.012    c0-0.345,0.04-0.688,0.119-1.024L21,53" style="fill:#919191;"/></g><g><path d="M43,53l1.881,3.495C44.96,56.831,45,57.174,45,57.519v0.012C45,59.999,42.999,62,40.531,62h0    c-1.57,0-3.025-0.824-3.833-2.17L34,55" style="fill:#919191;"/></g><g><polyline points="44,32 42,39 42,46 44,52 35,55 29,55 20,52 22,46 22,39 20,32   " style="fill:#4F7158;"/></g><g><polygon points="42.323,46.968 42,46 42,43 32,44 22,43 22,46 21.677,46.968 32,48   " style="fill:#6B3824;"/></g><g><path d="M43,27l6,3c0,0-11.288,5.131-11.288,5.131C37.491,35.046,37.251,35,37,35c-1.105,0-2,0.895-2,2h-6    c0-1.105-0.895-2-2-2c-0.251,0-0.491,0.046-0.712,0.13C26.288,35.131,15,30,15,30l6-3" style="fill:#2D4C40;"/></g><g><path d="M17,43l-5,2c0,2.761-2.238,5-5,5C4.297,50,2,47.703,2,45c0-2.761,2.239-5,5-5l4-4L17,43z" style="fill:#B9B9B9;"/></g><g><path d="M47,43l5,2c0,2.761,2.238,5,5,5c2.703,0,5.001-2.297,5-5c0-2.761-2.239-5-5-5l-4-4L47,43z" style="fill:#B9B9B9;"/></g><g><circle cx="27" cy="37" r="2" style="fill:#CCAC71;"/></g><g><circle cx="37" cy="37" r="2" style="fill:#CCAC71;"/></g><g><polyline points="21,27 17,29 12,25 15,6 32,2 49,6 52,25 47,29 43,27   " style="fill:#4F7158;"/></g><g><path d="M38,8l6,1l3,10v3.044c0,1.234-0.57,2.4-1.544,3.157l-5.831,4.535    C38.572,30.555,37.276,31,35.941,31h-7.883c-1.334,0-2.63-0.445-3.684-1.264l-5.831-4.535C17.57,24.443,17,23.278,17,22.044V19    l3-10l6-1l6-2L38,8z" style="fill:#B9B9B9;"/></g><g><path d="M47,22.044V21l-7,3l1.96,3.92l3.496-2.719C46.43,24.443,47,23.278,47,22.044z" style="fill:#566164;"/></g><g><path d="M17,22.044c0,1.234,0.57,2.4,1.544,3.157l3.496,2.719L24,24l-7-3V22.044z" style="fill:#566164;"/></g><g><polygon points="23,12 32,15 30,21 21,19   " style="fill:#EED997;"/></g><g><polygon points="41,12 32,15 34,21 43,19   " style="fill:#EED997;"/></g><g><path d="M7,51c-3.252,0-6-2.748-6-6c0-3.164,2.462-5.764,5.57-5.984l3.723-3.723c0.196-0.196,0.461-0.319,0.745-0.292    c0.278,0.011,0.54,0.137,0.721,0.349l6,7c0.21,0.244,0.289,0.575,0.212,0.889c-0.076,0.313-0.3,0.57-0.6,0.69l-4.411,1.765    C12.616,48.677,10.074,51,7,51z M10.943,37.471l-3.236,3.236C7.52,40.895,7.266,41,7,41c-2.206,0-4,1.794-4,4c0,2.168,1.832,4,4,4    c2.206,0,4-1.794,4-4c0-0.409,0.249-0.776,0.629-0.929l3.703-1.481L10.943,37.471z"/></g><g><path d="M27,40c-1.654,0-3-1.346-3-3s1.346-3,3-3s3,1.346,3,3S28.654,40,27,40z M27,36c-0.552,0-1,0.448-1,1s0.448,1,1,1    s1-0.448,1-1S27.552,36,27,36z"/></g><g><path d="M37,40c-1.654,0-3-1.346-3-3s1.346-3,3-3s3,1.346,3,3S38.654,40,37,40z M37,36c-0.552,0-1,0.448-1,1s0.448,1,1,1    s1-0.448,1-1S37.552,36,37,36z"/></g><g><rect height="2" width="6" x="29" y="36"/></g><g><path d="M25.586,35.91l-11-5c-0.351-0.159-0.579-0.506-0.586-0.892s0.208-0.74,0.553-0.913l6-3l0.895,1.789l-4.125,2.062    l9.092,4.133L25.586,35.91z"/></g><g><path d="M38.414,35.91l-0.828-1.82l9.092-4.133l-4.125-2.062l0.895-1.789l6,3c0.345,0.173,0.56,0.527,0.553,0.913    s-0.235,0.732-0.586,0.892L38.414,35.91z"/></g><g><path d="M57,51c-3.074,0-5.616-2.323-5.96-5.307l-4.411-1.765c-0.3-0.12-0.523-0.377-0.6-0.69    c-0.077-0.313,0.002-0.645,0.212-0.889l6-7c0.181-0.212,0.442-0.338,0.721-0.349c0.28-0.026,0.548,0.096,0.745,0.292l3.723,3.723    C60.538,39.236,63,41.836,63,45C63,48.252,60.252,51,57,51z M48.668,42.59l3.703,1.481C52.751,44.224,53,44.591,53,45    c0,2.206,1.794,4,4,4c2.168,0,4-1.832,4-4c0-2.206-1.794-4-4-4c-0.266,0-0.52-0.105-0.707-0.293l-3.236-3.236L48.668,42.59z"/></g><g><path d="M35,56h-6c-0.107,0-0.214-0.018-0.316-0.052l-9-3c-0.523-0.174-0.807-0.74-0.632-1.265L21,45.838v-5.22l-4.553,2.276    l-0.895-1.789l6-3c0.31-0.154,0.678-0.14,0.973,0.044C22.82,38.332,23,38.653,23,39v7c0,0.107-0.018,0.214-0.052,0.316    l-1.684,5.051L29.162,54h5.676l7.897-2.633l-1.684-5.051C41.018,46.214,41,46.107,41,46v-7c0-0.347,0.18-0.668,0.475-0.851    c0.294-0.184,0.663-0.198,0.973-0.044l6,3l-0.895,1.789L43,40.618v5.22l1.948,5.846c0.175,0.524-0.108,1.091-0.632,1.265l-9,3    C35.214,55.982,35.107,56,35,56z"/></g><g><path d="M23.47,63C20.454,63,18,60.546,18,57.53c0-0.434,0.049-0.855,0.146-1.265c0.021-0.085,0.052-0.167,0.093-0.244    l1.881-3.495l1.762,0.947l-1.814,3.372C20.022,57.066,20,57.293,20,57.519C20,59.443,21.557,61,23.47,61    c1.212,0,2.352-0.646,2.975-1.685l2.683-4.803l1.746,0.975l-2.698,4.83C27.177,61.982,25.38,63,23.47,63z"/></g><g><path d="M40.53,63c-1.91,0-3.707-1.018-4.689-2.655l-2.714-4.857l1.746-0.975l2.698,4.83C38.179,60.354,39.318,61,40.53,61    c1.913,0,3.47-1.557,3.47-3.47c0-0.235-0.022-0.463-0.066-0.685l-1.814-3.372l1.762-0.947l1.881,3.495    c0.041,0.077,0.072,0.159,0.093,0.244C45.951,56.675,46,57.097,46,57.519C46,60.546,43.546,63,40.53,63z"/></g><g><rect height="8.454" transform="matrix(0.6402 -0.7682 0.7682 0.6402 -8.8037 49.7908)" width="2.001" x="47.752" y="30.067"/></g><g><path d="M32,45c-0.033,0-0.066-0.002-0.1-0.005l-10-1l0.199-1.99l9.9,0.99l9.9-0.99l0.199,1.99l-10,1    C32.066,44.998,32.033,45,32,45z"/></g><g><path d="M32,49c-0.033,0-0.066-0.002-0.1-0.005l-10-1l0.199-1.99l9.9,0.99l9.9-0.99l0.199,1.99l-10,1    C32.066,48.998,32.033,49,32,49z"/></g><g><rect height="4" width="2" x="28" y="44"/></g><g><rect height="4" width="2" x="34" y="44"/></g><g><path d="M18.9,59.995l-10-1c-0.332-0.033-0.625-0.229-0.782-0.524c-0.157-0.294-0.157-0.647-0.001-0.941l8-15l1.766,0.941    l-7.298,13.683l8.515,0.852L18.9,59.995z"/></g><g><path d="M45.1,59.995l-0.199-1.99l8.515-0.852l-7.298-13.683l1.766-0.941l8,15c0.156,0.294,0.156,0.647-0.001,0.941    c-0.157,0.295-0.45,0.491-0.782,0.524L45.1,59.995z"/></g><g><rect height="2" width="10" x="27" y="59"/></g><g><path d="M35.941,32h-7.883c-1.55,0-3.076-0.523-4.298-1.475L17.93,25.99C16.703,25.036,16,23.598,16,22.044V19    c0-0.098,0.015-0.194,0.042-0.287l3-10c0.109-0.365,0.418-0.637,0.794-0.699l5.922-0.987l5.926-1.975    c0.205-0.068,0.428-0.068,0.633,0l5.926,1.975l5.922,0.987c0.376,0.062,0.685,0.334,0.794,0.699l3,10    C47.985,18.806,48,18.902,48,19v3.044c0,1.554-0.703,2.992-1.93,3.946l-5.831,4.535C39.018,31.477,37.491,32,35.941,32z     M18,19.146v2.897c0,0.932,0.422,1.795,1.158,2.368l5.831,4.535C25.861,29.626,26.951,30,28.059,30h7.883    c1.107,0,2.197-0.374,3.069-1.053l5.831-4.535C45.578,23.839,46,22.976,46,22.044v-2.897l-2.779-9.263l-5.385-0.897    c-0.052-0.009-0.103-0.021-0.152-0.038L32,7.054l-5.684,1.895c-0.05,0.017-0.101,0.029-0.152,0.038l-5.385,0.897L18,19.146z"/></g><g><path d="M30.001,22c-0.072,0-0.146-0.008-0.218-0.023l-9-2c-0.27-0.061-0.502-0.229-0.643-0.465    c-0.141-0.237-0.178-0.521-0.103-0.786l2-7c0.075-0.263,0.254-0.482,0.495-0.61c0.242-0.127,0.522-0.152,0.783-0.063l9,3    c0.523,0.174,0.807,0.74,0.632,1.265l-2,6C30.811,21.731,30.423,22,30.001,22z M22.253,18.254l7.084,1.574l1.398-4.195    l-7.061-2.354L22.253,18.254z"/></g><g><path d="M33.999,22c-0.422,0-0.81-0.269-0.947-0.684l-2-6c-0.175-0.524,0.108-1.091,0.632-1.265l9-3    c0.261-0.089,0.541-0.063,0.783,0.063c0.241,0.128,0.42,0.348,0.495,0.61l2,7c0.075,0.265,0.038,0.549-0.103,0.786    c-0.141,0.236-0.373,0.404-0.643,0.465l-9,2C34.145,21.992,34.071,22,33.999,22z M33.265,15.633l1.398,4.195l7.084-1.574    l-1.422-4.975L33.265,15.633z"/></g><g><path d="M37.445,27.832l-2.593-1.729l-2.536,0.845c-0.205,0.068-0.428,0.068-0.633,0l-2.536-0.845l-2.593,1.729l-1.109-1.664l3-2    c0.257-0.172,0.578-0.216,0.871-0.116L32,24.946l2.684-0.895c0.292-0.101,0.614-0.057,0.871,0.116l3,2L37.445,27.832z"/></g><g><path d="M41.105,28.447l-2-4c-0.123-0.246-0.14-0.532-0.045-0.791s0.292-0.467,0.546-0.575l7-3l0.787,1.838l-6.024,2.582    l1.525,3.052L41.105,28.447z"/></g><g><path d="M22.895,28.447l-1.789-0.895l1.525-3.052l-6.024-2.582l0.787-1.838l7,3c0.254,0.108,0.451,0.316,0.546,0.575    s0.078,0.545-0.045,0.791L22.895,28.447z"/></g><g><path d="M47.625,29.781l-1.25-1.562l4.547-3.637L48.117,6.819L32,3.027L15.883,6.819l-2.805,17.763l4.547,3.637l-1.25,1.562l-5-4    c-0.28-0.225-0.419-0.582-0.362-0.938l3-19c0.062-0.401,0.362-0.724,0.758-0.817l17-4c0.152-0.035,0.307-0.035,0.459,0l17,4    c0.396,0.094,0.695,0.416,0.758,0.817l3,19c0.057,0.355-0.082,0.713-0.362,0.938L47.625,29.781z"/></g><g><rect height="7.28" transform="matrix(0.9615 -0.2747 0.2747 0.9615 -8.9446 7.135)" width="2.001" x="20" y="31.86"/></g><g><rect height="2.001" transform="matrix(0.2743 -0.9616 0.9616 0.2743 -2.9344 67.1114)" width="7.28" x="39.36" y="34.5"/></g><g><circle cx="26.5" cy="16.5" r="1.5"/></g><g><circle cx="37.5" cy="16.5" r="1.5"/></g></g></svg>